HIERARCHY
ROOT Hips
{
	OFFSET -3.958830 18.904000 13.208200
	CHANNELS 6 Xposition Yposition Zposition Zrotation Yrotation Xrotation 
	JOINT LHipJoint
	{
		OFFSET 0.000000 0.000000 0.000000
		CHANNELS 3 Zrotation Yrotation Xrotation
		JOINT LeftUpLeg
		{
			OFFSET 1.800000 -1.400000 0.085000
			CHANNELS 3 Zrotation Yrotation Xrotation
			JOINT LeftLeg
			{
				OFFSET 2.215000 -6.000000 0.000000
				CHANNELS 3 Zrotation Yrotation Xrotation
				JOINT LeftFoot
				{
					OFFSET 2.500000 -6.900000 0.000000
					CHANNELS 3 Zrotation Yrotation Xrotation
					JOINT LeftToeBase
					{
						OFFSET 0.200000 -0.500000 1.950000
						CHANNELS 3 Zrotation Yrotation Xrotation
						End Site
						{
							OFFSET 0.000000 0.000000 0.000000
						}
					}
				}
			}
		}
	}
	JOINT RHipJoint
	{
		OFFSET 0.000000 0.000000 0.000000
		CHANNELS 3 Zrotation Yrotation Xrotation
		JOINT RightUpLeg
		{
			OFFSET -1.800000 -1.400000 0.085000
			CHANNELS 3 Zrotation Yrotation Xrotation
			JOINT RightLeg
			{
				OFFSET -2.215000 -6.000000 0.000000
				CHANNELS 3 Zrotation Yrotation Xrotation
				JOINT RightFoot
				{
					OFFSET -2.500000 -6.900000 0.000000
					CHANNELS 3 Zrotation Yrotation Xrotation
					JOINT RightToeBase
					{
						OFFSET -0.200000 -0.500000 1.950000
						CHANNELS 3 Zrotation Yrotation Xrotation
						End Site
						{
							OFFSET 0.000000 0.000000 0.000000
						}
					}
				}
			}
		}
	}
	JOINT LowerBack
	{
		OFFSET 0.000000 0.000000 0.000000
		CHANNELS 3 Zrotation Yrotation Xrotation
		JOINT Spine
		{
			OFFSET -0.087000 1.940000 -0.288900
			CHANNELS 3 Zrotation Yrotation Xrotation
			JOINT Spine1
			{
				OFFSET 0.000000 1.950000 0.060000
				CHANNELS 3 Zrotation Yrotation Xrotation
				JOINT Neck
				{
					OFFSET 0.000000 0.000000 0.000000
					CHANNELS 3 Zrotation Yrotation Xrotation
					JOINT Neck1
					{
						OFFSET 0.000000 1.600000 0.340000
						CHANNELS 3 Zrotation Yrotation Xrotation
						JOINT Head
						{
							OFFSET 0.000000 1.667000 -0.240000
							CHANNELS 3 Zrotation Yrotation Xrotation
							End Site
							{
								OFFSET 0.000000 0.000000 0.000000
							}
						}
					}
				}
				JOINT LeftShoulder
				{
					OFFSET 0.000000 0.000000 0.000000
					CHANNELS 3 Zrotation Yrotation Xrotation
					JOINT LeftArm
					{
						OFFSET 2.700000 1.550000 -0.730000
						CHANNELS 3 Zrotation Yrotation Xrotation
						JOINT LeftForeArm
						{
							OFFSET 5.450000 0.000000 0.000000
							CHANNELS 3 Zrotation Yrotation Xrotation
							JOINT LeftHand
							{
								OFFSET 3.450000 0.000000 0.000000
								CHANNELS 3 Zrotation Yrotation Xrotation
								JOINT LeftHandIndex1
								{
									OFFSET 0.750000 0.000000 0.000000
									CHANNELS 3 Zrotation Yrotation Xrotation
									End Site
									{
										OFFSET 0.000000 0.000000 0.000000
									}
								}
							}
						}
					}
				}
				JOINT RightShoulder
				{
					OFFSET 0.000000 0.000000 0.000000
					CHANNELS 3 Zrotation Yrotation Xrotation
					JOINT RightArm
					{
						OFFSET -2.700000 1.550000 -0.730000
						CHANNELS 3 Zrotation Yrotation Xrotation
						JOINT RightForeArm
						{
							OFFSET -5.450000 0.000000 0.000000
							CHANNELS 3 Zrotation Yrotation Xrotation
							JOINT RightHand
							{
								OFFSET -3.450000 0.000000 0.000000
								CHANNELS 3 Zrotation Yrotation Xrotation
								JOINT RightHandIndex1
								{
									OFFSET -0.750000 0.000000 0.000000
									CHANNELS 3 Zrotation Yrotation Xrotation
									End Site
									{
										OFFSET 0.000000 0.000000 0.000000
									}
								}
							}
						}
					}
				}
			}
		}
	}
}
MOTION
Frames: 9
Frame Time: 0.016667
0.669410 17.363220 -3.744430 -166.343617 -23.996561 167.589508 -15.203931 13.194858 1.836495 10.260637 -1.064176 -4.711733 -3.107673 6.766109 21.148172 0.007289 5.033206 2.912580 0.217710 0.023330 0.171300 18.355512 -9.086501 5.131160 -4.036072 10.787810 -39.951474 39.699141 -16.666414 27.834346 -1.148565 -7.149070 1.811065 -0.021010 0.156010 0.166750 -4.108804 -2.491289 -8.527736 19.571264 -8.367361 27.248541 -7.514514 -2.583094 8.854187 2.515952 -0.147424 -14.985400 -2.126717 -7.256899 28.378132 2.572320 -7.349300 -11.668640 -10.550998 -27.732265 5.131334 -4.021552 -14.009567 -9.697667 27.027501 -57.581188 -13.465350 -3.393445 3.070633 0.290320 0.000270 0.003750 0.099620 4.937169 26.853887 13.078553 19.192803 -6.921871 -17.219257 -20.091588 66.624092 -13.522663 1.712127 -1.552023 -0.052210 0.113350 0.000600 -0.037760 
0.627530 17.419030 -3.716410 -167.018428 -17.317125 169.135003 -15.171332 13.132882 1.853839 9.165840 -0.700495 -3.658375 -2.914570 6.345071 18.727001 0.050298 4.720219 3.022612 0.241320 0.063510 0.175860 18.404717 -8.933216 5.325012 -5.732287 10.893152 -40.958901 44.568287 -18.969845 28.766051 -1.391953 -7.937698 1.570699 -0.032550 0.117050 0.196910 -4.028322 -2.638111 -8.630294 19.508376 -7.959139 27.012794 -7.853021 -2.215553 8.282114 3.090629 -0.241240 -14.842713 -2.681016 -7.176858 29.911864 1.842000 -7.243200 -11.004260 -12.914427 -27.817256 5.086289 -5.239430 -15.017143 -9.425980 28.611595 -59.142772 -14.742130 -3.384688 3.080286 0.266350 -0.010290 0.036320 0.108980 6.152142 27.307766 12.970707 16.565642 -7.380633 -16.514162 -15.658504 69.471131 -11.589799 1.766807 -1.659451 0.009840 0.058130 -0.026780 -0.017280 
0.541820 17.446040 -3.702980 -166.297732 -6.760700 172.298793 -15.000098 12.642390 1.734413 9.190195 -0.520973 -3.043140 -3.426120 5.854829 14.860833 0.100193 4.311273 3.187596 0.356130 0.237500 0.116040 18.664111 -8.769045 5.701358 -8.128699 11.455534 -45.342975 52.598120 -24.258553 31.720688 -1.850416 -9.480833 1.146758 0.046470 0.146800 0.220230 -4.427331 -2.042092 -8.652952 23.686329 -8.389063 23.581730 -9.969887 -2.233412 8.690799 2.999941 -1.686847 -13.716496 -5.158155 -7.454517 30.321702 5.035060 -10.166810 -10.114650 -13.271760 -26.842415 4.578446 -7.863037 -17.972355 -8.134985 21.674720 -64.578560 -12.737776 -3.295779 3.269756 0.172750 -0.012390 0.033140 0.224620 6.686519 26.887806 11.934231 12.561415 -4.340428 -14.334245 -6.396519 72.635340 -6.199421 1.849816 -1.902667 0.104010 0.028980 -0.108560 0.090350 
0.466740 17.469680 -3.748020 -165.377280 2.313971 176.254744 -14.922548 12.366269 1.703270 9.099857 -0.619066 -3.612044 -3.468628 5.380317 11.800615 0.043444 4.115732 3.319128 0.198580 0.019200 -0.019680 18.784147 -8.673669 5.880066 -9.793211 11.064250 -47.491245 59.645475 -27.864070 31.468124 -2.000655 -10.257913 0.956786 -0.038320 0.278060 0.181590 -4.661538 -1.766594 -8.608657 27.004625 -9.014754 20.636557 -11.981270 -2.448523 7.453283 2.809903 -2.252920 -13.729850 -5.899086 -8.249943 29.070049 6.354060 -12.675960 -5.971210 -13.039869 -25.813900 4.823403 -10.660489 -18.085026 -7.087265 21.153953 -70.384873 -14.296632 -3.346659 3.244671 0.131160 0.047410 -0.107810 0.207370 6.714182 25.895541 11.953238 13.067118 -4.829863 -13.224542 2.434646 78.533123 -0.908637 1.888898 -2.013874 0.015730 0.053610 -0.008550 0.100960 
0.390060 17.510460 -3.750610 -163.728679 12.752942 179.511602 -14.941015 12.196658 1.815562 9.848060 -0.609267 -3.467356 -4.676929 5.236071 8.451112 0.056848 4.075262 3.365695 0.167730 -0.024330 0.001160 18.777733 -8.514062 6.028204 -11.278035 11.099221 -48.721591 65.983120 -30.749984 30.973420 -2.188167 -10.745723 0.859177 -0.065010 0.274860 0.159340 -4.685057 -1.745013 -8.701706 29.330000 -9.808528 20.759384 -13.302712 -2.249716 6.689627 3.700567 -2.126227 -14.200676 -5.613084 -8.763240 29.107654 5.155310 -12.508710 -6.071090 -14.430149 -26.353421 5.706610 -11.812657 -15.688748 -7.640736 24.618870 -76.137787 -19.142462 -3.334500 3.131916 0.153910 0.044420 -0.101720 0.193390 6.183009 27.024600 11.649542 11.053886 -2.595944 -12.854234 6.724503 78.999058 2.673439 1.896302 -2.029873 -0.012360 0.083030 -0.007770 0.081670 
0.319230 17.504800 -3.801530 -160.588263 24.874892 -174.353510 -14.917169 11.766624 1.769711 10.475469 -0.829201 -4.322961 -5.429039 5.002229 6.350661 -0.068987 4.079137 3.387059 0.168120 -0.044690 0.011900 18.859919 -8.508454 6.169527 -12.037047 12.216336 -51.155488 72.066496 -32.591003 29.805789 -2.272781 -11.103799 0.763404 -0.002100 0.352100 0.149910 -5.061401 -0.991316 -8.650967 33.660744 -9.371358 16.581869 -14.903112 -1.733244 7.522652 4.281838 -2.196146 -12.974326 -5.148682 -8.839862 28.389355 2.925910 -12.175370 -4.515900 -14.719059 -25.730141 5.869240 -12.539716 -16.551950 -6.111509 17.714685 -78.470498 -15.056686 -3.471165 3.205148 0.117170 0.118350 -0.184190 0.185430 5.186719 26.620713 9.459245 9.180013 6.274872 -10.575553 9.436608 74.120864 5.480418 1.886261 -1.998600 -0.081660 0.139170 0.030680 0.058020 
0.269890 17.502500 -3.865440 -157.471664 34.448133 -168.790918 -14.938622 11.595711 1.718175 9.892289 -0.848424 -5.017329 -4.627273 4.528830 4.873930 -0.083530 3.874856 3.462192 0.178780 -0.000190 -0.024650 18.879549 -8.459412 6.250135 -15.411408 9.620762 -52.356677 79.395506 -35.598065 27.659835 -2.377118 -11.418203 0.705590 0.025590 0.386270 0.175270 -5.136277 -0.867669 -8.657798 35.696817 -10.178628 15.181845 -16.034418 -2.376878 7.254090 4.727375 -2.062113 -12.414631 -4.515899 -9.454739 27.062380 2.272650 -12.471050 -4.211720 -15.665843 -25.177717 6.057820 -12.321599 -15.623773 -5.680777 17.367306 -83.043016 -16.427491 -3.538204 3.268648 0.053860 0.164290 -0.202690 0.208360 5.109730 25.945447 8.487666 7.329259 8.629380 -9.194197 17.423014 74.991559 11.233918 1.919036 -2.091059 -0.052120 0.132570 0.029450 0.091800 
0.277690 17.475400 -3.874060 -155.386070 43.430762 -164.150604 -14.953965 11.484549 1.643487 8.863630 -0.957636 -6.139686 -5.079890 4.561097 5.456144 -0.142235 3.840277 3.473248 0.175100 -0.023620 -0.054010 18.924126 -8.311894 6.351813 -17.514759 7.981940 -55.034564 79.976971 -39.090979 29.684170 -2.449491 -11.879549 0.572053 0.042740 0.434160 0.180110 -5.119150 -0.982477 -8.722339 33.185289 -9.848875 14.743139 -14.208895 -3.020370 7.327933 3.893246 -2.081298 -11.577701 -4.535903 -10.398501 26.580637 3.003950 -14.218480 -3.490230 -14.284263 -24.999566 5.325992 -14.050492 -19.961247 -4.511461 17.838020 -81.624147 -16.123456 -3.556544 3.254878 0.024010 0.188350 -0.256030 0.214370 5.431114 25.093111 7.930646 6.400281 9.729922 -8.438522 21.191375 78.516096 14.550055 1.948772 -2.137615 -0.068170 0.141650 0.056940 0.103260 
0.327780 17.452530 -3.951420 -150.213699 52.739997 -156.046811 -14.833952 11.382133 1.601920 8.448309 -1.088298 -7.378816 -5.743173 4.585752 5.295480 -0.144472 3.804421 3.491781 0.127770 -0.065750 -0.098470 19.096481 -8.136528 6.359540 -18.942368 7.913864 -56.238032 78.199767 -42.502412 33.134896 -2.525326 -12.394250 0.453088 0.021890 0.464770 0.183370 -4.954035 -0.928138 -8.864821 33.117144 -9.340235 13.594761 -13.715257 -2.933476 6.776741 3.669402 -1.850808 -11.911352 -3.812510 -11.612291 25.320372 1.496150 -14.729090 -1.790270 -13.937111 -25.346093 5.951587 -14.345541 -20.103093 -3.110352 0.135888 -85.824391 -2.350192 -3.639420 3.491810 -0.017910 0.232000 -0.292500 0.213470 5.435008 25.490171 7.804885 6.413537 11.861184 -7.317743 32.137652 81.634640 23.568928 1.990884 -2.219288 -0.074180 0.127870 0.073230 0.113640 
